<svg width="130" height="14" viewBox="0 0 130 14" fill="none" xmlns="http://www.w3.org/2000/svg">
<path d="M0.15918 10.6406V3.44922H1.43066V10.6406H0.15918ZM0.00195312 1.27539C0.00195312 1.0612 0.0703125 0.881185 0.207031 0.735352C0.34375 0.589518 0.539714 0.516602 0.794922 0.516602C1.05013 0.516602 1.24609 0.589518 1.38281 0.735352C1.51953 0.881185 1.58789 1.0612 1.58789 1.27539C1.58789 1.48958 1.51953 1.6696 1.38281 1.81543C1.24609 1.96126 1.05013 2.03418 0.794922 2.03418C0.539714 2.03418 0.34375 1.96126 0.207031 1.81543C0.0703125 1.6696 0.00195312 1.48958 0.00195312 1.27539ZM3.51562 10.6406V3.44922H4.66406L4.71875 4.37207H4.75977C5.01953 4.04395 5.33626 3.78646 5.70996 3.59961C6.08822 3.4082 6.50521 3.3125 6.96094 3.3125C7.68555 3.3125 8.26204 3.51986 8.69043 3.93457C9.12337 4.34473 9.33984 5.03288 9.33984 5.99902V10.6406H8.06836V5.98535C8.06836 5.41113 7.93848 5.00098 7.67871 4.75488C7.4235 4.50423 7.05892 4.37891 6.58496 4.37891C6.17936 4.37891 5.82161 4.48828 5.51172 4.70703C5.20182 4.92578 4.96029 5.20833 4.78711 5.55469V10.6406H3.51562ZM11.623 10.6406V2.4375C11.623 1.64453 11.8395 1.04069 12.2725 0.625977C12.7054 0.211263 13.2956 0.00390625 14.043 0.00390625C14.1888 0.00390625 14.3369 0.0130208 14.4873 0.03125C14.6377 0.0494792 14.7812 0.0768229 14.918 0.113281L14.8496 1.13867C14.7493 1.12044 14.6423 1.10449 14.5283 1.09082C14.4144 1.07715 14.2982 1.07031 14.1797 1.07031C13.7695 1.07031 13.4528 1.18424 13.2295 1.41211C13.0062 1.63997 12.8945 1.98177 12.8945 2.4375V3.85938V4.00977V10.6406H11.623ZM10.4541 4.41992V3.44922H12.1016H12.416H14.4531V4.41992H10.4541ZM14.9658 7.1543V6.93555C14.9658 5.85091 15.2734 4.96452 15.8887 4.27637C16.5039 3.58822 17.3265 3.24414 18.3564 3.24414C19.3864 3.24414 20.209 3.58822 20.8242 4.27637C21.4395 4.96452 21.7471 5.85091 21.7471 6.93555V7.1543C21.7471 8.23893 21.4395 9.12533 20.8242 9.81348C20.209 10.5016 19.3864 10.8457 18.3564 10.8457C17.3265 10.8457 16.5039 10.5016 15.8887 9.81348C15.2734 9.12533 14.9658 8.23893 14.9658 7.1543ZM16.2646 6.93555V7.1543C16.2646 7.89714 16.4401 8.52604 16.791 9.04102C17.1419 9.55143 17.6637 9.80664 18.3564 9.80664C19.0492 9.80664 19.571 9.55143 19.9219 9.04102C20.2728 8.52604 20.4482 7.89714 20.4482 7.1543V6.93555C20.4482 6.19271 20.2728 5.56608 19.9219 5.05566C19.571 4.54069 19.0492 4.2832 18.3564 4.2832C17.6637 4.2832 17.1419 4.54069 16.791 5.05566C16.4401 5.56608 16.2646 6.19271 16.2646 6.93555ZM26.5322 7.90625C26.5322 6.63021 26.8672 5.56836 27.5371 4.7207C28.2116 3.87305 28.9818 3.44922 29.8477 3.44922C30.2578 3.44922 30.6338 3.52669 30.9756 3.68164C31.3174 3.83203 31.6022 3.99609 31.8301 4.17383H32.4453L31.625 8.24805C31.5156 8.79492 31.5566 9.17546 31.748 9.38965C31.9395 9.60384 32.2174 9.71094 32.582 9.71094C33.2201 9.71094 33.7396 9.38737 34.1406 8.74023C34.5417 8.0931 34.7422 7.24544 34.7422 6.19727C34.7422 4.9668 34.3138 3.88444 33.457 2.9502C32.6003 2.01595 31.3971 1.54883 29.8477 1.54883C28.2982 1.54883 26.9993 2.12988 25.9512 3.29199C24.903 4.4541 24.3789 5.85547 24.3789 7.49609C24.3789 9.13672 24.8346 10.4014 25.7461 11.29C26.6576 12.1787 27.7969 12.623 29.1641 12.623C29.8021 12.623 30.3421 12.5615 30.7842 12.4385C31.2262 12.3154 31.5977 12.1719 31.8984 12.0078V13.0742C31.5794 13.2747 31.2035 13.4274 30.7705 13.5322C30.3376 13.637 29.8021 13.6895 29.1641 13.6895C27.5234 13.6895 26.1038 13.1357 24.9053 12.0283C23.7067 10.9209 23.1074 9.41016 23.1074 7.49609C23.1074 5.58203 23.7751 3.93457 25.1104 2.55371C26.4456 1.17285 28.0247 0.482422 29.8477 0.482422C31.6706 0.482422 33.1471 1.03613 34.2773 2.14355C35.4076 3.25098 35.9727 4.60221 35.9727 6.19727C35.9727 7.51888 35.6582 8.58984 35.0293 9.41016C34.4004 10.2305 33.6302 10.6406 32.7188 10.6406C32.1901 10.6406 31.7275 10.5267 31.3311 10.2988C30.9346 10.071 30.6452 9.77474 30.4629 9.41016C30.235 9.77474 29.9616 10.071 29.6426 10.2988C29.3236 10.5267 28.9818 10.6406 28.6172 10.6406C27.9792 10.6406 27.471 10.39 27.0928 9.88867C26.7191 9.38737 26.5322 8.72656 26.5322 7.90625ZM27.8311 7.90625C27.8311 8.45312 27.9268 8.86784 28.1182 9.15039C28.3141 9.43294 28.5944 9.57422 28.959 9.57422C29.278 9.57422 29.5651 9.45573 29.8203 9.21875C30.0801 8.98177 30.2715 8.56706 30.3945 7.97461L31.0781 4.69336C30.9414 4.60221 30.7819 4.53158 30.5996 4.48145C30.4173 4.43132 30.235 4.40625 30.0527 4.40625C29.4102 4.40625 28.8792 4.73893 28.46 5.4043C28.0407 6.06966 27.8311 6.90365 27.8311 7.90625ZM37.333 7.1543V6.93555C37.333 5.85091 37.6406 4.96452 38.2559 4.27637C38.8711 3.58822 39.6937 3.24414 40.7236 3.24414C41.7536 3.24414 42.5762 3.58822 43.1914 4.27637C43.8066 4.96452 44.1143 5.85091 44.1143 6.93555V7.1543C44.1143 8.23893 43.8066 9.12533 43.1914 9.81348C42.5762 10.5016 41.7536 10.8457 40.7236 10.8457C39.6937 10.8457 38.8711 10.5016 38.2559 9.81348C37.6406 9.12533 37.333 8.23893 37.333 7.1543ZM38.6318 6.93555V7.1543C38.6318 7.89714 38.8073 8.52604 39.1582 9.04102C39.5091 9.55143 40.0309 9.80664 40.7236 9.80664C41.4163 9.80664 41.9382 9.55143 42.2891 9.04102C42.64 8.52604 42.8154 7.89714 42.8154 7.1543V6.93555C42.8154 6.19271 42.64 5.56608 42.2891 5.05566C41.9382 4.54069 41.4163 4.2832 40.7236 4.2832C40.0309 4.2832 39.5091 4.54069 39.1582 5.05566C38.8073 5.56608 38.6318 6.19271 38.6318 6.93555ZM45.2422 8.52148H46.5137V8.55566C46.5137 8.97038 46.6663 9.28255 46.9717 9.49219C47.277 9.70182 47.6803 9.80664 48.1816 9.80664C48.6829 9.80664 49.0771 9.70638 49.3643 9.50586C49.6559 9.30534 49.8018 9.04557 49.8018 8.72656C49.8018 8.40755 49.6855 8.16374 49.4531 7.99512C49.2207 7.82194 48.7171 7.64421 47.9424 7.46191C47.1676 7.27962 46.5524 7.02441 46.0967 6.69629C45.641 6.36361 45.4131 5.90104 45.4131 5.30859C45.4131 4.71615 45.6569 4.22396 46.1445 3.83203C46.6367 3.4401 47.293 3.24414 48.1133 3.24414C48.9336 3.24414 49.5944 3.4401 50.0957 3.83203C50.597 4.2194 50.8477 4.74577 50.8477 5.41113V5.44531H49.583V5.38379C49.583 5.04199 49.4622 4.77311 49.2207 4.57715C48.9837 4.38118 48.6146 4.2832 48.1133 4.2832C47.612 4.2832 47.2451 4.37435 47.0127 4.55664C46.7848 4.73893 46.6709 4.9668 46.6709 5.24023C46.6709 5.51367 46.8031 5.73014 47.0674 5.88965C47.3317 6.04915 47.8512 6.22005 48.626 6.40234C49.4007 6.58464 49.9977 6.84668 50.417 7.18848C50.8408 7.53027 51.0527 8.02018 51.0527 8.6582C51.0527 9.29622 50.8135 9.82031 50.335 10.2305C49.8564 10.6406 49.1387 10.8457 48.1816 10.8457C47.2246 10.8457 46.4954 10.6383 45.9941 10.2236C45.4928 9.80436 45.2422 9.24837 45.2422 8.55566V8.52148ZM52.6113 10.6406V3.44922H53.7598L53.8145 4.37207H53.8555C54.1107 4.0485 54.4183 3.79102 54.7783 3.59961C55.1429 3.4082 55.5462 3.3125 55.9883 3.3125C56.4714 3.3125 56.8883 3.4082 57.2393 3.59961C57.5902 3.79102 57.8568 4.10091 58.0391 4.5293H58.0801C58.3809 4.10091 58.7135 3.79102 59.0781 3.59961C59.4427 3.4082 59.862 3.3125 60.3359 3.3125C61.0833 3.3125 61.6667 3.51986 62.0859 3.93457C62.5052 4.34473 62.7148 5.03288 62.7148 5.99902V10.6406H61.4434V5.98535C61.4434 5.41113 61.3203 5.00098 61.0742 4.75488C60.8281 4.50423 60.4795 4.37891 60.0283 4.37891C59.6364 4.37891 59.2923 4.48828 58.9961 4.70703C58.7044 4.92578 58.472 5.20833 58.2988 5.55469V10.6406H57.0273V5.98535C57.0273 5.41113 56.9043 5.00098 56.6582 4.75488C56.4121 4.50423 56.0635 4.37891 55.6123 4.37891C55.2204 4.37891 54.8763 4.48828 54.5801 4.70703C54.2884 4.92578 54.056 5.20833 53.8828 5.55469V10.6406H52.6113ZM64.6699 10.6406V3.44922H65.8184L65.873 4.37207H65.9141C66.0964 4.07129 66.3356 3.80924 66.6318 3.58594C66.9281 3.35807 67.2812 3.24414 67.6914 3.24414C67.7917 3.24414 67.8965 3.25553 68.0059 3.27832C68.1152 3.30111 68.1927 3.32161 68.2383 3.33984V4.51562C68.1471 4.4974 68.0514 4.48372 67.9512 4.47461C67.8509 4.46549 67.7415 4.46094 67.623 4.46094C67.2129 4.46094 66.8643 4.56803 66.5771 4.78223C66.29 4.99642 66.0781 5.26302 65.9414 5.58203V10.6406H64.6699ZM68.7852 4.41992V3.44922H72.8867V4.41992H68.7852ZM70.0703 8.86328V4.03711V3.83203V1.67188H71.3418V8.86328C71.3418 9.18229 71.4056 9.41016 71.5332 9.54688C71.6608 9.68359 71.8613 9.75195 72.1348 9.75195C72.2624 9.75195 72.3877 9.73828 72.5107 9.71094C72.6338 9.68359 72.7591 9.64714 72.8867 9.60156V10.6406C72.7682 10.6953 72.6133 10.7432 72.4219 10.7842C72.2305 10.8252 72.0208 10.8457 71.793 10.8457C71.2689 10.8457 70.8496 10.6862 70.5352 10.3672C70.2253 10.0482 70.0703 9.54688 70.0703 8.86328ZM74.2402 10.6406V3.44922H75.3887L75.4434 4.37207H75.4844C75.7441 4.04395 76.0609 3.78646 76.4346 3.59961C76.8128 3.4082 77.2298 3.3125 77.6855 3.3125C78.4102 3.3125 78.9867 3.51986 79.415 3.93457C79.848 4.34473 80.0645 5.03288 80.0645 5.99902V10.6406H78.793V5.98535C78.793 5.41113 78.6631 5.00098 78.4033 4.75488C78.1481 4.50423 77.7835 4.37891 77.3096 4.37891C76.904 4.37891 76.5462 4.48828 76.2363 4.70703C75.9264 4.92578 75.6849 5.20833 75.5117 5.55469V10.6406H74.2402ZM82.0811 10.6406V3.44922H83.3525V10.6406H82.0811ZM81.9238 1.27539C81.9238 1.0612 81.9922 0.881185 82.1289 0.735352C82.2656 0.589518 82.4616 0.516602 82.7168 0.516602C82.972 0.516602 83.168 0.589518 83.3047 0.735352C83.4414 0.881185 83.5098 1.0612 83.5098 1.27539C83.5098 1.48958 83.4414 1.6696 83.3047 1.81543C83.168 1.96126 82.972 2.03418 82.7168 2.03418C82.4616 2.03418 82.2656 1.96126 82.1289 1.81543C81.9922 1.6696 81.9238 1.48958 81.9238 1.27539ZM85.0068 7.1543V6.93555C85.0068 5.85091 85.3008 4.96452 85.8887 4.27637C86.4811 3.58822 87.2946 3.24414 88.3291 3.24414C89.2861 3.24414 90.013 3.50391 90.5098 4.02344C91.0065 4.53841 91.2549 5.11491 91.2549 5.75293V5.78711H90.0244V5.75293C90.0244 5.36556 89.89 5.02376 89.6211 4.72754C89.3522 4.43132 88.9215 4.2832 88.3291 4.2832C87.6364 4.2832 87.126 4.54069 86.7979 5.05566C86.4697 5.56608 86.3057 6.19271 86.3057 6.93555V7.1543C86.3057 7.89714 86.4697 8.52604 86.7979 9.04102C87.126 9.55143 87.6364 9.80664 88.3291 9.80664C88.9215 9.80664 89.3522 9.65853 89.6211 9.3623C89.89 9.06608 90.0244 8.72428 90.0244 8.33691V8.30273H91.2549V8.33691C91.2549 8.97493 91.0065 9.55371 90.5098 10.0732C90.013 10.5882 89.2861 10.8457 88.3291 10.8457C87.2946 10.8457 86.4811 10.5016 85.8887 9.81348C85.3008 9.12533 85.0068 8.23893 85.0068 7.1543ZM92.3418 8.52148C92.3418 7.79232 92.6312 7.22493 93.21 6.81934C93.7887 6.41374 94.5247 6.21094 95.418 6.21094H97.0449V5.71875C97.0449 5.28581 96.9333 4.9349 96.71 4.66602C96.4867 4.39258 96.1016 4.25586 95.5547 4.25586C95.0078 4.25586 94.6159 4.36979 94.3789 4.59766C94.1465 4.82096 94.0303 5.08073 94.0303 5.37695V5.41113H92.7656V5.37695C92.7656 4.80729 93.0186 4.31055 93.5244 3.88672C94.0348 3.45833 94.723 3.24414 95.5889 3.24414C96.4548 3.24414 97.1247 3.4515 97.5986 3.86621C98.0771 4.28092 98.3164 4.89844 98.3164 5.71875V9C98.3164 9.29622 98.3392 9.5765 98.3848 9.84082C98.4303 10.1006 98.4941 10.3307 98.5762 10.5312V10.6406H97.3457C97.2819 10.5267 97.2227 10.3786 97.168 10.1963C97.1178 10.014 97.0859 9.83171 97.0723 9.64941C96.9036 9.94564 96.6302 10.2077 96.252 10.4355C95.8783 10.6634 95.3952 10.7773 94.8027 10.7773C94.1191 10.7773 93.5381 10.5837 93.0596 10.1963C92.5811 9.80892 92.3418 9.25065 92.3418 8.52148ZM93.6133 8.45312C93.6133 8.86328 93.7318 9.18457 93.9688 9.41699C94.2057 9.64941 94.5749 9.76562 95.0762 9.76562C95.5775 9.76562 96.0309 9.59245 96.4365 9.24609C96.8421 8.89974 97.0449 8.53288 97.0449 8.14551V7.11328H95.5547C94.9167 7.11328 94.4336 7.23405 94.1055 7.47559C93.7773 7.71712 93.6133 8.04297 93.6133 8.45312ZM100.381 9.93652C100.381 9.69954 100.456 9.49902 100.606 9.33496C100.761 9.16634 100.982 9.08203 101.27 9.08203C101.557 9.08203 101.775 9.16634 101.926 9.33496C102.081 9.49902 102.158 9.69954 102.158 9.93652C102.158 10.1735 102.081 10.3763 101.926 10.5449C101.775 10.709 101.557 10.791 101.27 10.791C100.982 10.791 100.761 10.709 100.606 10.5449C100.456 10.3763 100.381 10.1735 100.381 9.93652ZM103.696 7.1543V6.93555C103.696 5.85091 103.99 4.96452 104.578 4.27637C105.171 3.58822 105.984 3.24414 107.019 3.24414C107.976 3.24414 108.702 3.50391 109.199 4.02344C109.696 4.53841 109.944 5.11491 109.944 5.75293V5.78711H108.714V5.75293C108.714 5.36556 108.579 5.02376 108.311 4.72754C108.042 4.43132 107.611 4.2832 107.019 4.2832C106.326 4.2832 105.815 4.54069 105.487 5.05566C105.159 5.56608 104.995 6.19271 104.995 6.93555V7.1543C104.995 7.89714 105.159 8.52604 105.487 9.04102C105.815 9.55143 106.326 9.80664 107.019 9.80664C107.611 9.80664 108.042 9.65853 108.311 9.3623C108.579 9.06608 108.714 8.72428 108.714 8.33691V8.30273H109.944V8.33691C109.944 8.97493 109.696 9.55371 109.199 10.0732C108.702 10.5882 107.976 10.8457 107.019 10.8457C105.984 10.8457 105.171 10.5016 104.578 9.81348C103.99 9.12533 103.696 8.23893 103.696 7.1543ZM110.997 7.1543V6.93555C110.997 5.85091 111.305 4.96452 111.92 4.27637C112.535 3.58822 113.358 3.24414 114.388 3.24414C115.418 3.24414 116.24 3.58822 116.855 4.27637C117.471 4.96452 117.778 5.85091 117.778 6.93555V7.1543C117.778 8.23893 117.471 9.12533 116.855 9.81348C116.24 10.5016 115.418 10.8457 114.388 10.8457C113.358 10.8457 112.535 10.5016 111.92 9.81348C111.305 9.12533 110.997 8.23893 110.997 7.1543ZM112.296 6.93555V7.1543C112.296 7.89714 112.471 8.52604 112.822 9.04102C113.173 9.55143 113.695 9.80664 114.388 9.80664C115.08 9.80664 115.602 9.55143 115.953 9.04102C116.304 8.52604 116.479 7.89714 116.479 7.1543V6.93555C116.479 6.19271 116.304 5.56608 115.953 5.05566C115.602 4.54069 115.08 4.2832 114.388 4.2832C113.695 4.2832 113.173 4.54069 112.822 5.05566C112.471 5.56608 112.296 6.19271 112.296 6.93555ZM119.371 10.6406V3.44922H120.52L120.574 4.37207H120.615C120.87 4.0485 121.178 3.79102 121.538 3.59961C121.903 3.4082 122.306 3.3125 122.748 3.3125C123.231 3.3125 123.648 3.4082 123.999 3.59961C124.35 3.79102 124.617 4.10091 124.799 4.5293H124.84C125.141 4.10091 125.473 3.79102 125.838 3.59961C126.202 3.4082 126.622 3.3125 127.096 3.3125C127.843 3.3125 128.426 3.51986 128.846 3.93457C129.265 4.34473 129.475 5.03288 129.475 5.99902V10.6406H128.203V5.98535C128.203 5.41113 128.08 5.00098 127.834 4.75488C127.588 4.50423 127.239 4.37891 126.788 4.37891C126.396 4.37891 126.052 4.48828 125.756 4.70703C125.464 4.92578 125.232 5.20833 125.059 5.55469V10.6406H123.787V5.98535C123.787 5.41113 123.664 5.00098 123.418 4.75488C123.172 4.50423 122.823 4.37891 122.372 4.37891C121.98 4.37891 121.636 4.48828 121.34 4.70703C121.048 4.92578 120.816 5.20833 120.643 5.55469V10.6406H119.371Z" fill="#414141"/>
</svg>
