<svg width="197" height="60" viewBox="0 0 197 60" fill="none" xmlns="http://www.w3.org/2000/svg">
<g filter="url(#filter0_dd_10454_39150)">
<rect x="5" y="5" width="40" height="40" rx="8" fill="url(#paint0_linear_10454_39150)"/>
<path d="M25.0385 36C17.8766 36 14 31.6046 14 25.93C14 19.866 18.3652 15 26.1697 15C31.8658 15 36 18.64 36 23.6547C36 31.5081 26.5308 33.5814 27.0057 29.1013C26.3548 30.1001 25.3062 31.2233 23.2904 31.2233C20.9841 31.2233 19.5504 29.5628 19.5504 26.89C19.5504 22.884 22.228 19.4991 25.3978 19.4991C26.9186 19.4991 27.9645 20.2888 28.4018 21.5012L28.8271 20.03H30.9703C30.7466 20.78 28.8427 27.7166 28.8427 27.7166C28.2487 30.1199 30.0802 30.1623 31.7045 28.8858C34.7561 26.5601 34.9137 20.4781 30.7897 17.9414C26.3704 15.3353 16.3109 16.948 16.3109 25.7776C16.3109 30.8356 19.9318 34.2341 25.3208 34.2341C28.4705 34.2341 30.401 33.3957 32.0079 32.4781L33.0868 34.0087C31.5184 34.8795 28.9976 36 25.0385 36ZM22.8898 23.1049C22.2344 24.3128 21.8109 25.8777 21.8109 27.0928C21.8109 30.3471 25.0394 30.3678 26.6252 27.3083C27.2779 26.0517 27.6987 24.4498 27.6987 23.2257C27.6987 20.5962 24.4949 20.1301 22.8898 23.1049Z" fill="black"/>
</g>
<path d="M62.0732 30V22.8086H63.3447V30H62.0732ZM61.916 20.6348C61.916 20.4206 61.9844 20.2406 62.1211 20.0947C62.2578 19.9489 62.4538 19.876 62.709 19.876C62.9642 19.876 63.1602 19.9489 63.2969 20.0947C63.4336 20.2406 63.502 20.4206 63.502 20.6348C63.502 20.849 63.4336 21.029 63.2969 21.1748C63.1602 21.3206 62.9642 21.3936 62.709 21.3936C62.4538 21.3936 62.2578 21.3206 62.1211 21.1748C61.9844 21.029 61.916 20.849 61.916 20.6348ZM65.4297 30V22.8086H66.5781L66.6328 23.7314H66.6738C66.9336 23.4033 67.2503 23.1458 67.624 22.959C68.0023 22.7676 68.4193 22.6719 68.875 22.6719C69.5996 22.6719 70.1761 22.8792 70.6045 23.2939C71.0374 23.7041 71.2539 24.3923 71.2539 25.3584V30H69.9824V25.3447C69.9824 24.7705 69.8525 24.3604 69.5928 24.1143C69.3376 23.8636 68.973 23.7383 68.499 23.7383C68.0934 23.7383 67.7357 23.8477 67.4258 24.0664C67.1159 24.2852 66.8743 24.5677 66.7012 24.9141V30H65.4297ZM73.5371 30V21.7969C73.5371 21.0039 73.7536 20.4001 74.1865 19.9854C74.6195 19.5706 75.2096 19.3633 75.957 19.3633C76.1029 19.3633 76.251 19.3724 76.4014 19.3906C76.5518 19.4089 76.6953 19.4362 76.832 19.4727L76.7637 20.498C76.6634 20.4798 76.5563 20.4639 76.4424 20.4502C76.3285 20.4365 76.2122 20.4297 76.0938 20.4297C75.6836 20.4297 75.3669 20.5436 75.1436 20.7715C74.9202 20.9993 74.8086 21.3411 74.8086 21.7969V23.2188V23.3691V30H73.5371ZM72.3682 23.7793V22.8086H74.0156H74.3301H76.3672V23.7793H72.3682ZM76.8799 26.5137V26.2949C76.8799 25.2103 77.1875 24.3239 77.8027 23.6357C78.418 22.9476 79.2406 22.6035 80.2705 22.6035C81.3005 22.6035 82.123 22.9476 82.7383 23.6357C83.3535 24.3239 83.6611 25.2103 83.6611 26.2949V26.5137C83.6611 27.5983 83.3535 28.4847 82.7383 29.1729C82.123 29.861 81.3005 30.2051 80.2705 30.2051C79.2406 30.2051 78.418 29.861 77.8027 29.1729C77.1875 28.4847 76.8799 27.5983 76.8799 26.5137ZM78.1787 26.2949V26.5137C78.1787 27.2565 78.3542 27.8854 78.7051 28.4004C79.056 28.9108 79.5778 29.166 80.2705 29.166C80.9632 29.166 81.485 28.9108 81.8359 28.4004C82.1868 27.8854 82.3623 27.2565 82.3623 26.5137V26.2949C82.3623 25.5521 82.1868 24.9255 81.8359 24.415C81.485 23.9001 80.9632 23.6426 80.2705 23.6426C79.5778 23.6426 79.056 23.9001 78.7051 24.415C78.3542 24.9255 78.1787 25.5521 78.1787 26.2949ZM88.4463 27.2656C88.4463 25.9896 88.7812 24.9277 89.4512 24.0801C90.1257 23.2324 90.8958 22.8086 91.7617 22.8086C92.1719 22.8086 92.5479 22.8861 92.8896 23.041C93.2314 23.1914 93.5163 23.3555 93.7441 23.5332H94.3594L93.5391 27.6074C93.4297 28.1543 93.4707 28.5348 93.6621 28.749C93.8535 28.9632 94.1315 29.0703 94.4961 29.0703C95.1341 29.0703 95.6536 28.7467 96.0547 28.0996C96.4557 27.4525 96.6562 26.6048 96.6562 25.5566C96.6562 24.3262 96.2279 23.2438 95.3711 22.3096C94.5143 21.3753 93.3112 20.9082 91.7617 20.9082C90.2122 20.9082 88.9134 21.4893 87.8652 22.6514C86.8171 23.8135 86.293 25.2148 86.293 26.8555C86.293 28.4961 86.7487 29.7607 87.6602 30.6494C88.5716 31.5381 89.7109 31.9824 91.0781 31.9824C91.7161 31.9824 92.2562 31.9209 92.6982 31.7979C93.1403 31.6748 93.5117 31.5312 93.8125 31.3672V32.4336C93.4935 32.6341 93.1175 32.7868 92.6846 32.8916C92.2516 32.9964 91.7161 33.0488 91.0781 33.0488C89.4375 33.0488 88.0179 32.4951 86.8193 31.3877C85.6208 30.2803 85.0215 28.7695 85.0215 26.8555C85.0215 24.9414 85.6891 23.2939 87.0244 21.9131C88.3597 20.5322 89.9388 19.8418 91.7617 19.8418C93.5846 19.8418 95.0612 20.3955 96.1914 21.5029C97.3216 22.6104 97.8867 23.9616 97.8867 25.5566C97.8867 26.8783 97.5723 27.9492 96.9434 28.7695C96.3145 29.5898 95.5443 30 94.6328 30C94.1042 30 93.6416 29.8861 93.2451 29.6582C92.8486 29.4303 92.5592 29.1341 92.377 28.7695C92.1491 29.1341 91.8757 29.4303 91.5566 29.6582C91.2376 29.8861 90.8958 30 90.5312 30C89.8932 30 89.3851 29.7493 89.0068 29.248C88.6331 28.7467 88.4463 28.0859 88.4463 27.2656ZM89.7451 27.2656C89.7451 27.8125 89.8408 28.2272 90.0322 28.5098C90.2282 28.7923 90.5085 28.9336 90.873 28.9336C91.1921 28.9336 91.4792 28.8151 91.7344 28.5781C91.9941 28.3411 92.1855 27.9264 92.3086 27.334L92.9922 24.0527C92.8555 23.9616 92.696 23.891 92.5137 23.8408C92.3314 23.7907 92.1491 23.7656 91.9668 23.7656C91.3242 23.7656 90.7933 24.0983 90.374 24.7637C89.9548 25.429 89.7451 26.263 89.7451 27.2656ZM99.2471 26.5137V26.2949C99.2471 25.2103 99.5547 24.3239 100.17 23.6357C100.785 22.9476 101.608 22.6035 102.638 22.6035C103.668 22.6035 104.49 22.9476 105.105 23.6357C105.721 24.3239 106.028 25.2103 106.028 26.2949V26.5137C106.028 27.5983 105.721 28.4847 105.105 29.1729C104.49 29.861 103.668 30.2051 102.638 30.2051C101.608 30.2051 100.785 29.861 100.17 29.1729C99.5547 28.4847 99.2471 27.5983 99.2471 26.5137ZM100.546 26.2949V26.5137C100.546 27.2565 100.721 27.8854 101.072 28.4004C101.423 28.9108 101.945 29.166 102.638 29.166C103.33 29.166 103.852 28.9108 104.203 28.4004C104.554 27.8854 104.729 27.2565 104.729 26.5137V26.2949C104.729 25.5521 104.554 24.9255 104.203 24.415C103.852 23.9001 103.33 23.6426 102.638 23.6426C101.945 23.6426 101.423 23.9001 101.072 24.415C100.721 24.9255 100.546 25.5521 100.546 26.2949ZM107.156 27.8809H108.428V27.915C108.428 28.3298 108.58 28.6419 108.886 28.8516C109.191 29.0612 109.594 29.166 110.096 29.166C110.597 29.166 110.991 29.0658 111.278 28.8652C111.57 28.6647 111.716 28.4049 111.716 28.0859C111.716 27.7669 111.6 27.5231 111.367 27.3545C111.135 27.1813 110.631 27.0036 109.856 26.8213C109.082 26.639 108.466 26.3838 108.011 26.0557C107.555 25.723 107.327 25.2604 107.327 24.668C107.327 24.0755 107.571 23.5833 108.059 23.1914C108.551 22.7995 109.207 22.6035 110.027 22.6035C110.848 22.6035 111.508 22.7995 112.01 23.1914C112.511 23.5788 112.762 24.1051 112.762 24.7705V24.8047H111.497V24.7432C111.497 24.4014 111.376 24.1325 111.135 23.9365C110.898 23.7406 110.529 23.6426 110.027 23.6426C109.526 23.6426 109.159 23.7337 108.927 23.916C108.699 24.0983 108.585 24.3262 108.585 24.5996C108.585 24.873 108.717 25.0895 108.981 25.249C109.246 25.4085 109.765 25.5794 110.54 25.7617C111.315 25.944 111.912 26.2061 112.331 26.5479C112.755 26.8896 112.967 27.3796 112.967 28.0176C112.967 28.6556 112.728 29.1797 112.249 29.5898C111.771 30 111.053 30.2051 110.096 30.2051C109.139 30.2051 108.41 29.9977 107.908 29.583C107.407 29.1637 107.156 28.6077 107.156 27.915V27.8809ZM114.525 30V22.8086H115.674L115.729 23.7314H115.77C116.025 23.4079 116.332 23.1504 116.692 22.959C117.057 22.7676 117.46 22.6719 117.902 22.6719C118.385 22.6719 118.802 22.7676 119.153 22.959C119.504 23.1504 119.771 23.4603 119.953 23.8887H119.994C120.295 23.4603 120.628 23.1504 120.992 22.959C121.357 22.7676 121.776 22.6719 122.25 22.6719C122.997 22.6719 123.581 22.8792 124 23.2939C124.419 23.7041 124.629 24.3923 124.629 25.3584V30H123.357V25.3447C123.357 24.7705 123.234 24.3604 122.988 24.1143C122.742 23.8636 122.394 23.7383 121.942 23.7383C121.55 23.7383 121.206 23.8477 120.91 24.0664C120.618 24.2852 120.386 24.5677 120.213 24.9141V30H118.941V25.3447C118.941 24.7705 118.818 24.3604 118.572 24.1143C118.326 23.8636 117.978 23.7383 117.526 23.7383C117.134 23.7383 116.79 23.8477 116.494 24.0664C116.202 24.2852 115.97 24.5677 115.797 24.9141V30H114.525ZM126.584 30V22.8086H127.732L127.787 23.7314H127.828C128.01 23.4307 128.25 23.1686 128.546 22.9453C128.842 22.7174 129.195 22.6035 129.605 22.6035C129.706 22.6035 129.811 22.6149 129.92 22.6377C130.029 22.6605 130.107 22.681 130.152 22.6992V23.875C130.061 23.8568 129.965 23.8431 129.865 23.834C129.765 23.8249 129.656 23.8203 129.537 23.8203C129.127 23.8203 128.778 23.9274 128.491 24.1416C128.204 24.3558 127.992 24.6224 127.855 24.9414V30H126.584ZM130.699 23.7793V22.8086H134.801V23.7793H130.699ZM131.984 28.2227V23.3965V23.1914V21.0312H133.256V28.2227C133.256 28.5417 133.32 28.7695 133.447 28.9062C133.575 29.043 133.775 29.1113 134.049 29.1113C134.176 29.1113 134.302 29.0977 134.425 29.0703C134.548 29.043 134.673 29.0065 134.801 28.9609V30C134.682 30.0547 134.527 30.1025 134.336 30.1436C134.145 30.1846 133.935 30.2051 133.707 30.2051C133.183 30.2051 132.764 30.0456 132.449 29.7266C132.139 29.4076 131.984 28.9062 131.984 28.2227ZM136.154 30V22.8086H137.303L137.357 23.7314H137.398C137.658 23.4033 137.975 23.1458 138.349 22.959C138.727 22.7676 139.144 22.6719 139.6 22.6719C140.324 22.6719 140.901 22.8792 141.329 23.2939C141.762 23.7041 141.979 24.3923 141.979 25.3584V30H140.707V25.3447C140.707 24.7705 140.577 24.3604 140.317 24.1143C140.062 23.8636 139.698 23.7383 139.224 23.7383C138.818 23.7383 138.46 23.8477 138.15 24.0664C137.84 24.2852 137.599 24.5677 137.426 24.9141V30H136.154ZM143.995 30V22.8086H145.267V30H143.995ZM143.838 20.6348C143.838 20.4206 143.906 20.2406 144.043 20.0947C144.18 19.9489 144.376 19.876 144.631 19.876C144.886 19.876 145.082 19.9489 145.219 20.0947C145.355 20.2406 145.424 20.4206 145.424 20.6348C145.424 20.849 145.355 21.029 145.219 21.1748C145.082 21.3206 144.886 21.3936 144.631 21.3936C144.376 21.3936 144.18 21.3206 144.043 21.1748C143.906 21.029 143.838 20.849 143.838 20.6348ZM146.921 26.5137V26.2949C146.921 25.2103 147.215 24.3239 147.803 23.6357C148.395 22.9476 149.209 22.6035 150.243 22.6035C151.2 22.6035 151.927 22.8633 152.424 23.3828C152.921 23.8978 153.169 24.4743 153.169 25.1123V25.1465H151.938V25.1123C151.938 24.7249 151.804 24.3831 151.535 24.0869C151.266 23.7907 150.836 23.6426 150.243 23.6426C149.55 23.6426 149.04 23.9001 148.712 24.415C148.384 24.9255 148.22 25.5521 148.22 26.2949V26.5137C148.22 27.2565 148.384 27.8854 148.712 28.4004C149.04 28.9108 149.55 29.166 150.243 29.166C150.836 29.166 151.266 29.0179 151.535 28.7217C151.804 28.4255 151.938 28.0837 151.938 27.6963V27.6621H153.169V27.6963C153.169 28.3343 152.921 28.9131 152.424 29.4326C151.927 29.9476 151.2 30.2051 150.243 30.2051C149.209 30.2051 148.395 29.861 147.803 29.1729C147.215 28.4847 146.921 27.5983 146.921 26.5137ZM154.256 27.8809C154.256 27.1517 154.545 26.5843 155.124 26.1787C155.703 25.7731 156.439 25.5703 157.332 25.5703H158.959V25.0781C158.959 24.6452 158.847 24.2943 158.624 24.0254C158.401 23.752 158.016 23.6152 157.469 23.6152C156.922 23.6152 156.53 23.7292 156.293 23.957C156.061 24.1803 155.944 24.4401 155.944 24.7363V24.7705H154.68V24.7363C154.68 24.1667 154.933 23.6699 155.438 23.2461C155.949 22.8177 156.637 22.6035 157.503 22.6035C158.369 22.6035 159.039 22.8109 159.513 23.2256C159.991 23.6403 160.23 24.2578 160.23 25.0781V28.3594C160.23 28.6556 160.253 28.9359 160.299 29.2002C160.344 29.46 160.408 29.6901 160.49 29.8906V30H159.26C159.196 29.8861 159.137 29.738 159.082 29.5557C159.032 29.3734 159 29.1911 158.986 29.0088C158.818 29.305 158.544 29.5671 158.166 29.7949C157.792 30.0228 157.309 30.1367 156.717 30.1367C156.033 30.1367 155.452 29.943 154.974 29.5557C154.495 29.1683 154.256 28.61 154.256 27.8809ZM155.527 27.8125C155.527 28.2227 155.646 28.5439 155.883 28.7764C156.12 29.0088 156.489 29.125 156.99 29.125C157.492 29.125 157.945 28.9518 158.351 28.6055C158.756 28.2591 158.959 27.8923 158.959 27.5049V26.4727H157.469C156.831 26.4727 156.348 26.5934 156.02 26.835C155.691 27.0765 155.527 27.4023 155.527 27.8125ZM162.295 29.2959C162.295 29.0589 162.37 28.8584 162.521 28.6943C162.675 28.5257 162.896 28.4414 163.184 28.4414C163.471 28.4414 163.689 28.5257 163.84 28.6943C163.995 28.8584 164.072 29.0589 164.072 29.2959C164.072 29.5329 163.995 29.7357 163.84 29.9043C163.689 30.0684 163.471 30.1504 163.184 30.1504C162.896 30.1504 162.675 30.0684 162.521 29.9043C162.37 29.7357 162.295 29.5329 162.295 29.2959ZM165.61 26.5137V26.2949C165.61 25.2103 165.904 24.3239 166.492 23.6357C167.085 22.9476 167.898 22.6035 168.933 22.6035C169.89 22.6035 170.617 22.8633 171.113 23.3828C171.61 23.8978 171.858 24.4743 171.858 25.1123V25.1465H170.628V25.1123C170.628 24.7249 170.493 24.3831 170.225 24.0869C169.956 23.7907 169.525 23.6426 168.933 23.6426C168.24 23.6426 167.729 23.9001 167.401 24.415C167.073 24.9255 166.909 25.5521 166.909 26.2949V26.5137C166.909 27.2565 167.073 27.8854 167.401 28.4004C167.729 28.9108 168.24 29.166 168.933 29.166C169.525 29.166 169.956 29.0179 170.225 28.7217C170.493 28.4255 170.628 28.0837 170.628 27.6963V27.6621H171.858V27.6963C171.858 28.3343 171.61 28.9131 171.113 29.4326C170.617 29.9476 169.89 30.2051 168.933 30.2051C167.898 30.2051 167.085 29.861 166.492 29.1729C165.904 28.4847 165.61 27.5983 165.61 26.5137ZM172.911 26.5137V26.2949C172.911 25.2103 173.219 24.3239 173.834 23.6357C174.449 22.9476 175.272 22.6035 176.302 22.6035C177.332 22.6035 178.154 22.9476 178.77 23.6357C179.385 24.3239 179.692 25.2103 179.692 26.2949V26.5137C179.692 27.5983 179.385 28.4847 178.77 29.1729C178.154 29.861 177.332 30.2051 176.302 30.2051C175.272 30.2051 174.449 29.861 173.834 29.1729C173.219 28.4847 172.911 27.5983 172.911 26.5137ZM174.21 26.2949V26.5137C174.21 27.2565 174.385 27.8854 174.736 28.4004C175.087 28.9108 175.609 29.166 176.302 29.166C176.994 29.166 177.516 28.9108 177.867 28.4004C178.218 27.8854 178.394 27.2565 178.394 26.5137V26.2949C178.394 25.5521 178.218 24.9255 177.867 24.415C177.516 23.9001 176.994 23.6426 176.302 23.6426C175.609 23.6426 175.087 23.9001 174.736 24.415C174.385 24.9255 174.21 25.5521 174.21 26.2949ZM181.285 30V22.8086H182.434L182.488 23.7314H182.529C182.785 23.4079 183.092 23.1504 183.452 22.959C183.817 22.7676 184.22 22.6719 184.662 22.6719C185.145 22.6719 185.562 22.7676 185.913 22.959C186.264 23.1504 186.531 23.4603 186.713 23.8887H186.754C187.055 23.4603 187.387 23.1504 187.752 22.959C188.117 22.7676 188.536 22.6719 189.01 22.6719C189.757 22.6719 190.34 22.8792 190.76 23.2939C191.179 23.7041 191.389 24.3923 191.389 25.3584V30H190.117V25.3447C190.117 24.7705 189.994 24.3604 189.748 24.1143C189.502 23.8636 189.153 23.7383 188.702 23.7383C188.31 23.7383 187.966 23.8477 187.67 24.0664C187.378 24.2852 187.146 24.5677 186.973 24.9141V30H185.701V25.3447C185.701 24.7705 185.578 24.3604 185.332 24.1143C185.086 23.8636 184.737 23.7383 184.286 23.7383C183.894 23.7383 183.55 23.8477 183.254 24.0664C182.962 24.2852 182.73 24.5677 182.557 24.9141V30H181.285Z" fill="#414141"/>
<defs>
<filter id="filter0_dd_10454_39150" x="0" y="0" width="60" height="60" filterUnits="userSpaceOnUse" color-interpolation-filters="sRGB">
<feFlood flood-opacity="0" result="BackgroundImageFix"/>
<feColorMatrix in="SourceAlpha" type="matrix" values="0 0 0 0 0 0 0 0 0 0 0 0 0 0 0 0 0 0 127 0" result="hardAlpha"/>
<feOffset dx="5" dy="5"/>
<feGaussianBlur stdDeviation="5"/>
<feComposite in2="hardAlpha" operator="out"/>
<feColorMatrix type="matrix" values="0 0 0 0 0.7625 0 0 0 0 0.7625 0 0 0 0 0.7625 0 0 0 0.5 0"/>
<feBlend mode="normal" in2="BackgroundImageFix" result="effect1_dropShadow_10454_39150"/>
<feColorMatrix in="SourceAlpha" type="matrix" values="0 0 0 0 0 0 0 0 0 0 0 0 0 0 0 0 0 0 127 0" result="hardAlpha"/>
<feOffset dx="-2" dy="-2"/>
<feGaussianBlur stdDeviation="1.5"/>
<feComposite in2="hardAlpha" operator="out"/>
<feColorMatrix type="matrix" values="0 0 0 0 1 0 0 0 0 1 0 0 0 0 1 0 0 0 0.5 0"/>
<feBlend mode="normal" in2="effect1_dropShadow_10454_39150" result="effect2_dropShadow_10454_39150"/>
<feBlend mode="normal" in="SourceGraphic" in2="effect2_dropShadow_10454_39150" result="shape"/>
</filter>
<linearGradient id="paint0_linear_10454_39150" x1="5" y1="5" x2="53.2623" y2="26.1159" gradientUnits="userSpaceOnUse">
<stop stop-color="#E3E8EC"/>
<stop offset="1" stop-color="white"/>
</linearGradient>
</defs>
</svg>
